<?xml version="1.0" encoding="UTF-8" standalone="no"?>
<!-- Created with Inkscape (http://www.inkscape.org/) -->

<svg
   xmlns:dc="http://purl.org/dc/elements/1.1/"
   xmlns:cc="http://creativecommons.org/ns#"
   xmlns:rdf="http://www.w3.org/1999/02/22-rdf-syntax-ns#"
   xmlns:svg="http://www.w3.org/2000/svg"
   xmlns="http://www.w3.org/2000/svg"
   xmlns:sodipodi="http://sodipodi.sourceforge.net/DTD/sodipodi-0.dtd"
   xmlns:inkscape="http://www.inkscape.org/namespaces/inkscape"
   version="1.1"
   id="svg2"
   xml:space="preserve"
   width="2666.6667"
   height="2666.6667"
   viewBox="0 0 2666.6667 2666.6667"
   sodipodi:docname="worker.svg"
   inkscape:version="0.92.5 (2060ec1f9f, 2020-04-08)"><metadata
     id="metadata8"><rdf:RDF><cc:Work
         rdf:about=""><dc:format>image/svg+xml</dc:format><dc:type
           rdf:resource="http://purl.org/dc/dcmitype/StillImage" /><dc:title></dc:title></cc:Work></rdf:RDF></metadata><defs
     id="defs6" /><sodipodi:namedview
     pagecolor="#ffffff"
     bordercolor="#666666"
     borderopacity="1"
     objecttolerance="10"
     gridtolerance="10"
     guidetolerance="10"
     inkscape:pageopacity="0"
     inkscape:pageshadow="2"
     inkscape:window-width="787"
     inkscape:window-height="480"
     id="namedview4"
     showgrid="false"
     inkscape:zoom="0.088499997"
     inkscape:cx="1333.3334"
     inkscape:cy="1333.3334"
     inkscape:window-x="0"
     inkscape:window-y="27"
     inkscape:window-maximized="0"
     inkscape:current-layer="g10" /><g
     id="g10"
     inkscape:groupmode="layer"
     inkscape:label="ink_ext_XXXXXX"
     transform="matrix(1.3333333,0,0,-1.3333333,0,2666.6667)"><path
       inkscape:connector-curvature="0"
       id="path40"
       style="fill:#29333f;fill-opacity:1;fill-rule:nonzero;stroke:none;stroke-width:0.1"
       d="m 1501.72,558.99 c -3.63,-8.29 -33.06,-67.41 -130.07,-60.58 v 394.35 c 35.1,-26.59 67.09,-58.11 91.45,-95.26 45.48,-69.34 58.47,-149.58 38.62,-238.51 z m -164.5,-55.82 c -5.1,1.04 -10.41,-0.83 -13.81,-4.78 -0.78,-0.91 -81.42,-91.57 -323.636,-93.24 -242.214,1.67 -322.856,92.32 -323.59,93.18 -3.385,4.03 -8.704,5.89 -13.864,4.84 -1.933,-0.39 -3.782,-0.68 -5.673,-1.03 v 410.9 c 36.835,24.24 75.617,43.63 111.714,58.85 l 0.004,-199.81 c 0,-4.92 2.515,-9.5 6.666,-12.14 74.55,-47.37 149.614,-71.05 224.713,-71.05 75.086,0 150.196,23.69 224.786,71.05 4.15,2.64 6.67,7.21 6.67,12.14 l -0.01,199.81 c 36.1,-15.22 74.88,-34.61 111.71,-58.86 V 502.14 c -1.89,0.35 -3.74,0.64 -5.68,1.03 z m -839.393,55.81 c -19.848,88.93 -6.859,169.18 38.616,238.52 24.365,37.15 56.353,68.68 91.454,95.26 V 498.41 c -97.233,-6.85 -126.579,52.56 -130.07,60.57 z m 502.147,429.71 c 3.426,0.04 41.776,1.22 86.906,29.69 15.2,-3.31 60.22,-13.98 115.56,-34.98 l 0.01,-203.36 c -136.34,-83.91 -269.094,-83.91 -405.335,0 l -0.004,203.36 c 55.392,21.02 100.452,31.69 115.607,34.99 45.199,-28.48 83.649,-29.66 87.256,-29.7 z m -199.828,286.35 c 53.891,-8.52 124.583,-13.22 199.62,-13.22 75.314,0 146.464,4.83 199.644,13.24 -23.72,-132.42 -75.66,-196.79 -120.63,-228.06 -1.94,-0.77 -3.7,-1.94 -5.14,-3.45 -38.61,-25.04 -70.91,-26.08 -73.706,-26.11 -2.938,0.03 -35.386,1.07 -74.097,26.19 -1.403,1.45 -3.1,2.58 -4.973,3.34 -45.024,31.25 -96.985,95.62 -120.718,228.07 z m -37.153,57.79 c 0.339,0.09 0.637,0.25 0.963,0.36 0.525,0.18 1.054,0.34 1.551,0.57 0.411,0.2 0.781,0.45 1.166,0.67 0.411,0.25 0.832,0.48 1.215,0.76 0.385,0.28 0.724,0.61 1.075,0.93 0.335,0.3 0.678,0.59 0.98,0.92 0.315,0.34 0.578,0.72 0.855,1.09 0.281,0.37 0.569,0.73 0.814,1.12 0.233,0.38 0.411,0.79 0.608,1.19 0.21,0.43 0.435,0.85 0.603,1.3 0.165,0.45 0.267,0.91 0.387,1.37 0.115,0.44 0.251,0.86 0.325,1.31 0.089,0.54 0.099,1.1 0.127,1.65 0.016,0.34 0.086,0.67 0.076,1.02 -2.888,117.51 54.279,179 102.75,209.89 18.48,11.8 38.296,20.67 58.785,26.64 v -156.54 c 0,-7.94 6.435,-14.37 14.375,-14.37 7.939,0 14.375,6.43 14.375,14.37 v 162.93 c 23.654,3.71 47.767,3.71 71.427,0.01 v -162.94 c 0,-7.94 6.43,-14.37 14.37,-14.37 7.94,0 14.38,6.43 14.38,14.37 v 156.56 c 20.51,-5.98 40.34,-14.85 58.84,-26.66 48.45,-30.9 105.6,-92.4 102.71,-209.89 -0.01,-0.35 0.06,-0.68 0.08,-1.03 0.03,-0.55 0.04,-1.11 0.13,-1.65 0.07,-0.45 0.21,-0.88 0.32,-1.31 0.13,-0.46 0.23,-0.93 0.39,-1.37 0.17,-0.45 0.4,-0.87 0.61,-1.3 0.19,-0.4 0.37,-0.81 0.6,-1.19 0.25,-0.4 0.54,-0.75 0.82,-1.12 0.28,-0.37 0.54,-0.75 0.85,-1.09 0.31,-0.33 0.65,-0.61 0.98,-0.91 0.36,-0.32 0.69,-0.65 1.08,-0.94 0.39,-0.28 0.81,-0.51 1.22,-0.75 0.39,-0.23 0.75,-0.48 1.16,-0.67 0.5,-0.24 1.04,-0.4 1.57,-0.58 0.32,-0.11 0.62,-0.27 0.96,-0.35 16.19,-4.2 24.66,-8.02 28.94,-10.52 -4.62,-2.69 -14.14,-6.93 -33.01,-11.54 -51.67,-12.65 -138.65,-20.2 -232.684,-20.2 -145.542,0 -244.009,17.67 -266.004,31.55 4.175,2.49 12.658,6.39 29.231,10.71 z M 1487.08,813.35 c -95.96,146.25 -294.33,208.48 -370.26,227.6 45.58,40.46 91.82,112.29 112.71,239.66 3.35,0.73 6.62,1.47 9.74,2.23 27.11,6.62 58.21,17.08 58.21,39.48 0,18.55 -21.1,28.69 -42.89,35.29 -0.63,123.64 -62.98,189.74 -116.08,223.61 -57.63,36.77 -126.78,48.39 -191.69,34.87 -0.042,0 -0.084,-0.01 -0.124,-0.02 -29.979,-6.26 -59.054,-17.86 -85.668,-34.85 -53.124,-33.86 -115.505,-99.95 -116.128,-223.62 -21.769,-6.64 -42.856,-16.79 -42.856,-35.28 0,-13.64 8.775,-28.97 67.984,-41.74 20.892,-127.35 67.119,-199.16 112.727,-239.62 -75.9,-19.11 -274.313,-81.34 -370.295,-227.61 -50.163,-76.44 -64.432,-164.55 -42.41,-261.89 0.15,-0.67 0.349,-1.32 0.591,-1.96 0.353,-0.92 32.137,-80.37 142.462,-80.36 14.351,0 30.033,1.34 47.144,4.38 23.453,-22.43 116.952,-95.61 339.435,-97.12 0.027,0 0.054,0 0.08,0 v 0 c 0.004,0 0.008,0 0.012,0 0.002,0 0.006,0 0.008,0 0.002,0 0.002,0 0.002,0 0.026,0 0.054,0 0.078,0 222.488,1.51 315.988,74.69 339.438,97.12 17.12,-3.04 32.78,-4.38 47.14,-4.38 110.31,0.01 142.11,79.44 142.46,80.36 0.25,0.64 0.45,1.29 0.6,1.96 22.02,97.34 7.75,185.45 -42.42,261.89" /><path
       inkscape:connector-curvature="0"
       id="path42"
       style="fill:#dce7ec;fill-opacity:1;fill-rule:nonzero;stroke:none;stroke-width:0.1"
       d="m 1501.71,558.98 c -3.61,-8.29 -33.06,-67.4 -130.07,-60.58 v 394.37 c 35.11,-26.62 67.07,-58.12 91.46,-95.29 45.47,-69.33 58.45,-149.58 38.61,-238.5" /><path
       inkscape:connector-curvature="0"
       id="path44"
       style="fill:#dce7ec;fill-opacity:1;fill-rule:nonzero;stroke:none;stroke-width:0.1"
       d="M 627.88,892.77 V 498.4 c -97.216,-6.86 -126.582,52.57 -130.073,60.58 -19.837,88.92 -6.859,169.17 38.608,238.5 24.396,37.17 56.349,68.71 91.465,95.29" /><path
       inkscape:connector-curvature="0"
       id="path46"
       style="fill:#ff8212;fill-opacity:1;fill-rule:nonzero;stroke:none;stroke-width:0.1"
       d="M 1342.89,913.01 V 502.14 c -1.89,0.33 -3.74,0.66 -5.67,1.03 -5.13,1.02 -10.43,-0.83 -13.84,-4.77 -0.78,-0.94 -81.4,-91.59 -323.642,-93.27 -242.196,1.68 -322.819,92.33 -323.558,93.19 -3.409,4.02 -8.708,5.91 -13.883,4.85 -1.93,-0.37 -3.778,-0.7 -5.667,-1.03 v 410.92 c 36.841,24.23 75.612,43.61 111.713,58.81 V 772.06 c 0,-4.89 2.505,-9.49 6.654,-12.12 74.585,-47.35 149.622,-71.05 224.741,-71.05 75.082,0 150.202,23.7 224.782,71.05 4.15,2.63 6.65,7.23 6.65,12.12 v 199.81 c 36.11,-15.2 74.88,-34.58 111.72,-58.86" /><path
       inkscape:connector-curvature="0"
       id="path48"
       style="fill:#dce7ec;fill-opacity:1;fill-rule:nonzero;stroke:none;stroke-width:0.1"
       d="M 1202.42,983.41 V 780.03 c -136.31,-83.91 -269.094,-83.91 -405.327,0 v 203.38 c 55.405,20.99 100.46,31.67 115.615,34.99 45.178,-28.5 83.622,-29.69 87.236,-29.73 3.446,0.04 41.766,1.23 86.906,29.69 15.2,-3.28 60.25,-13.96 115.57,-34.95" /><path
       inkscape:connector-curvature="0"
       id="path50"
       style="fill:#f4b77c;fill-opacity:1;fill-rule:nonzero;stroke:none;stroke-width:0.1"
       d="m 1199.38,1275.06 c -23.69,-132.42 -75.65,-196.77 -120.62,-228.07 -1.93,-0.74 -3.7,-1.93 -5.13,-3.45 -38.61,-25.01 -70.93,-26.08 -73.728,-26.12 -2.916,0.04 -35.361,1.11 -74.092,26.2 -1.396,1.48 -3.081,2.59 -4.97,3.33 -45.014,31.25 -96.968,95.65 -120.708,228.11 53.885,-8.54 124.57,-13.23 199.606,-13.23 75.322,0 146.462,4.81 199.642,13.23" /><path
       inkscape:connector-curvature="0"
       id="path52"
       style="fill:#f9b533;fill-opacity:1;fill-rule:nonzero;stroke:none;stroke-width:0.1"
       d="m 1265.43,1322.33 c -4.6,-2.71 -14.13,-6.94 -32.98,-11.54 -51.67,-12.69 -138.66,-20.21 -232.712,-20.21 -145.515,0 -244.004,17.66 -265.976,31.55 4.147,2.46 12.649,6.36 29.201,10.71 0.37,0.09 0.658,0.25 0.985,0.33 0.535,0.21 1.027,0.37 1.562,0.58 0.409,0.2 0.78,0.45 1.149,0.7 0.411,0.24 0.822,0.45 1.233,0.74 0.369,0.28 0.698,0.61 1.067,0.94 0.329,0.29 0.658,0.58 0.987,0.91 0.286,0.32 0.574,0.73 0.82,1.1 0.288,0.37 0.575,0.7 0.822,1.11 0.246,0.37 0.411,0.78 0.616,1.19 0.205,0.41 0.452,0.87 0.615,1.32 0.165,0.41 0.247,0.9 0.37,1.35 0.124,0.45 0.247,0.87 0.329,1.32 0.083,0.53 0.083,1.07 0.124,1.64 0,0.33 0.082,0.66 0.082,1.03 -2.876,117.5 54.296,178.98 102.76,209.87 18.482,11.79 38.278,20.66 58.773,26.66 v -156.57 c 0,-7.92 6.448,-14.37 14.375,-14.37 7.927,0 14.375,6.45 14.375,14.37 v 162.93 c 23.656,3.74 47.763,3.74 71.423,0.04 v -162.97 c 0,-7.92 6.45,-14.37 14.37,-14.37 7.93,0 14.38,6.45 14.38,14.37 v 156.57 c 20.49,-5.96 40.33,-14.83 58.85,-26.66 48.47,-30.89 105.6,-92.41 102.72,-209.87 -0.04,-0.37 0.04,-0.7 0.09,-1.03 0,-0.57 0,-1.11 0.12,-1.64 0.04,-0.45 0.2,-0.91 0.29,-1.32 0.12,-0.49 0.24,-0.94 0.41,-1.39 0.16,-0.46 0.41,-0.87 0.61,-1.28 0.21,-0.41 0.37,-0.82 0.62,-1.19 0.2,-0.41 0.49,-0.78 0.78,-1.15 0.29,-0.37 0.57,-0.74 0.86,-1.06 0.33,-0.33 0.66,-0.62 0.99,-0.91 0.37,-0.33 0.69,-0.66 1.06,-0.94 0.42,-0.29 0.83,-0.54 1.24,-0.78 0.37,-0.21 0.74,-0.46 1.15,-0.66 0.49,-0.25 1.02,-0.41 1.56,-0.58 0.33,-0.12 0.65,-0.24 0.98,-0.37 16.19,-4.18 24.65,-8.01 28.92,-10.47" /></g></svg>