<?xml version="1.0" encoding="UTF-8" standalone="no"?>
<!-- Created with Inkscape (http://www.inkscape.org/) -->

<svg
   xmlns:dc="http://purl.org/dc/elements/1.1/"
   xmlns:cc="http://creativecommons.org/ns#"
   xmlns:rdf="http://www.w3.org/1999/02/22-rdf-syntax-ns#"
   xmlns:svg="http://www.w3.org/2000/svg"
   xmlns="http://www.w3.org/2000/svg"
   xmlns:xlink="http://www.w3.org/1999/xlink"
   xmlns:sodipodi="http://sodipodi.sourceforge.net/DTD/sodipodi-0.dtd"
   xmlns:inkscape="http://www.inkscape.org/namespaces/inkscape"
   version="1.1"
   id="svg2"
   xml:space="preserve"
   width="2666.6667"
   height="2666.6667"
   viewBox="0 0 2666.6667 2666.6667"
   sodipodi:docname="worker_shade.svg"
   inkscape:version="0.92.5 (2060ec1f9f, 2020-04-08)"><metadata
     id="metadata8"><rdf:RDF><cc:Work
         rdf:about=""><dc:format>image/svg+xml</dc:format><dc:type
           rdf:resource="http://purl.org/dc/dcmitype/StillImage" /><dc:title /></cc:Work></rdf:RDF></metadata><defs
     id="defs6"><linearGradient
       inkscape:collect="always"
       id="linearGradient832"><stop
         style="stop-color:#1a1a1a;stop-opacity:1;"
         offset="0"
         id="stop828" /><stop
         style="stop-color:#1a1a1a;stop-opacity:0"
         offset="1"
         id="stop830" /></linearGradient><linearGradient
       inkscape:collect="always"
       xlink:href="#linearGradient832"
       id="linearGradient834"
       x1="1101.0605"
       y1="2162.3887"
       x2="1500.0317"
       y2="634.1402"
       gradientUnits="userSpaceOnUse"
       gradientTransform="matrix(0.75000002,0,0,-0.75000002,-2.1186434,1963.9831)" /><filter
       inkscape:collect="always"
       style="color-interpolation-filters:sRGB"
       id="filter840"
       x="-0.025841118"
       width="1.0516822"
       y="-0.022403784"
       height="1.0448076"><feGaussianBlur
         inkscape:collect="always"
         stdDeviation="11.623301"
         id="feGaussianBlur842" /></filter></defs><sodipodi:namedview
     pagecolor="#ffffff"
     bordercolor="#666666"
     borderopacity="1"
     objecttolerance="10"
     gridtolerance="10"
     guidetolerance="10"
     inkscape:pageopacity="0"
     inkscape:pageshadow="2"
     inkscape:window-width="1920"
     inkscape:window-height="1016"
     id="namedview4"
     showgrid="false"
     inkscape:zoom="0.35399999"
     inkscape:cx="837.94226"
     inkscape:cy="1311.4495"
     inkscape:window-x="0"
     inkscape:window-y="27"
     inkscape:window-maximized="1"
     inkscape:current-layer="g10" /><g
     id="g10"
     inkscape:groupmode="layer"
     inkscape:label="ink_ext_XXXXXX"
     transform="matrix(1.3333333,0,0,-1.3333333,0,2666.6667)"
     style="opacity:0.93"><path
       style="fill:url(#linearGradient834);fill-opacity:1;fill-rule:nonzero;stroke:none;stroke-width:1.5;stroke-miterlimit:4;stroke-dasharray:none;stroke-opacity:1;filter:url(#filter840)"
       d="m 1000.1245,1585.5143 c -18.57607,0.175 -37.16787,-1.6394 -55.42377,-5.4419 -0.042,0 -0.083,-0.01 -0.1231,-0.019 -29.979,-6.26 -59.0544,-17.8601 -85.6684,-34.8501 -53.124,-33.86 -115.5054,-99.9501 -116.1284,-223.6201 -21.769,-6.64 -42.8555,-16.7908 -42.8555,-35.2808 0,-13.64 8.7744,-28.9692 67.9834,-41.7392 20.892,-127.3501 67.1191,-199.1606 112.7271,-239.6207 -75.9,-19.10995 -274.31299,-81.33885 -370.29498,-227.60878 -50.163,-76.44 -64.43216,-164.55068 -42.41016,-261.89063 0.15,-0.67005 0.3498,-1.32 0.59179,-1.95998 0.353,-0.92002 32.13693,-80.36985 142.46195,-80.35988 14.351,0 30.0335,1.33988 47.1445,4.37993 23.453,-22.43003 116.9521,-95.6106 339.4351,-97.12065 h 0.079 0.012 0.01 v 0 h 0.078 c 222.48797,1.51005 315.98797,74.69062 339.43797,97.12065 17.12,-3.04005 32.7801,-4.37993 47.1401,-4.37993 110.31,0.01 142.1104,79.43986 142.4605,80.35988 0.2499,0.63998 0.4506,1.28993 0.6006,1.95998 22.02,97.33995 7.7496,185.45063 -42.4205,261.89063 -95.9599,146.25003 -294.3298,208.47863 -370.2597,227.59858 45.58,40.46 91.8194,112.2901 112.7094,239.6602 3.35,0.73 6.6198,1.4709 9.7398,2.2309 27.11,6.62 58.21,17.079 58.21,39.479 0,18.55 -21.0992,28.691 -42.8892,35.291 -0.63,123.64 -62.9801,189.7399 -116.0801,223.6099 -41.4216,26.4284 -88.7948,39.8639 -136.2671,40.311 z m -17.62927,-29.2456 c -6.8866,-0.4567 -13.7584,-1.2127 -20.5914,-2.2924 v 0.016 c 6.8324,1.0716 13.7043,1.8235 20.5914,2.2763 z m 50.81677,-2.2632 c 0.01,-9e-4 0.013,0 0.019,0 v -162.939 c 0,-7.9399 6.4301,-14.3701 14.3701,-14.3701 2.4812,0 4.8164,0.6272 6.854,1.7329 -2.0436,-1.1166 -4.3858,-1.7534 -6.8745,-1.7534 -7.92,0 -14.3687,6.4501 -14.3687,14.3701 z m 28.7696,-6.3823 c 20.51,-5.98 40.3398,-14.8501 58.8398,-26.6601 47.6917,-30.4164 103.8127,-90.4824 102.8013,-204.4146 1.0054,113.91 -55.0989,173.997 -102.8116,204.4043 -18.5138,11.8261 -38.3468,20.6944 -58.8295,26.6543 z m -128.92677,-0.021 v -156.5391 c 0,-7.9399 6.4345,-14.3701 14.3745,-14.3701 2.9718,0 5.7326,0.901 8.0244,2.4449 -2.2965,-1.5554 -5.0638,-2.4654 -8.0405,-2.4654 -7.927,0 -14.3745,6.4501 -14.3745,14.3701 v 156.5552 c 0.01,0 0.011,0 0.016,0 z m -15.2475,-5.0288 c -15.0804,-5.5786 -29.6811,-12.7786 -43.5426,-21.6211 -24.2313,-15.4446 -50.639,-38.5354 -70.6303,-72.4526 19.9896,33.9225 46.3993,57.0179 70.6348,72.4629 13.8545,8.8465 28.461,16.0453 43.5381,21.6108 z m 305.72457,-231.5068 c -0.01,-0.2791 0.031,-0.5476 0.058,-0.8218 -0.044,0.2627 -0.087,0.5294 -0.058,0.8218 z m 0.095,-1.333 c 0.02,-0.4329 0.042,-0.8667 0.1085,-1.2906 -0.091,0.4188 -0.1049,0.849 -0.1085,1.2906 z m 0.1392,-1.4517 c 0.074,-0.4093 0.1937,-0.8058 0.2945,-1.1997 0.13,-0.46 0.2311,-0.9296 0.391,-1.3696 0.1701,-0.45 0.3994,-0.8694 0.6094,-1.2994 0.077,-0.1617 0.154,-0.3254 0.2315,-0.4877 -0.078,0.1644 -0.1561,0.3294 -0.2417,0.4965 -0.2,0.41 -0.4494,0.8203 -0.6094,1.2803 -0.17,0.45 -0.2901,0.9001 -0.4101,1.3901 -0.081,0.3704 -0.2097,0.7817 -0.2652,1.1895 z m 2.0171,-5.2339 c 0.2212,-0.3274 0.4615,-0.6313 0.6988,-0.9448 0.2799,-0.37 0.5396,-0.7513 0.8496,-1.0913 0.057,-0.061 0.1194,-0.1147 0.1787,-0.1729 -0.067,0.063 -0.1328,0.1167 -0.1993,0.1831 -0.2899,0.32 -0.5698,0.6906 -0.8598,1.0606 -0.2447,0.3121 -0.4774,0.6291 -0.668,0.9653 z m -457.96587,-1.9116 c -0.031,-0.036 -0.06,-0.08 -0.091,-0.1143 -0.016,-0.015 -0.031,-0.027 -0.047,-0.043 0.014,0.015 0.03,0.027 0.044,0.043 0.034,0.036 0.061,0.077 0.094,0.1143 z m 460.54987,-1.0855 c 0.3381,-0.3039 0.6546,-0.613 1.0239,-0.8877 0.1499,-0.1075 0.3065,-0.204 0.4629,-0.3002 -0.1642,0.1044 -0.3255,0.1939 -0.4922,0.309 -0.3469,0.2625 -0.6532,0.5697 -0.9946,0.8789 z m -462.59767,-0.7968 c -0.033,-0.026 -0.063,-0.057 -0.097,-0.082 -0.025,-0.018 -0.051,-0.031 -0.076,-0.048 0.024,0.017 0.05,0.031 0.073,0.048 0.035,0.025 0.065,0.056 0.1,0.082 z m 464.28367,-0.5171 c 0.1854,-0.1098 0.3731,-0.2154 0.5581,-0.3238 0.39,-0.23 0.7502,-0.4809 1.1602,-0.6709 0.5,-0.24 1.0403,-0.4 1.5703,-0.58 0.32,-0.11 0.6195,-0.2701 0.9595,-0.3501 15.6553,-4.0613 24.0519,-7.7546 28.4619,-10.2554 -4.3929,2.4651 -12.7849,6.1759 -28.4722,10.2261 -0.33,0.13 -0.65,0.2491 -0.98,0.3691 -0.54,0.17 -1.07,0.3301 -1.56,0.5801 -0.41,0.2 -0.7799,0.4506 -1.1499,0.6606 -0.1813,0.1061 -0.3658,0.2317 -0.5479,0.3443 z m -466.05167,-0.5948 c -0.2285,-0.1471 -0.4621,-0.2886 -0.7105,-0.4101 -0.156,-0.061 -0.3047,-0.1133 -0.4555,-0.1685 0.1516,0.058 0.3056,0.1107 0.4526,0.1787 0.2485,0.121 0.4824,0.2601 0.7134,0.3999 z m -1.7183,-0.7851 c -0.1827,-0.066 -0.3641,-0.1306 -0.5537,-0.2051 -0.1093,-0.027 -0.2128,-0.069 -0.3179,-0.1084 0.1077,0.044 0.2137,0.091 0.3252,0.1289 0.1822,0.062 0.3646,0.1232 0.5464,0.1846 z m -11.7906,-3.4819 c -0.2253,-0.071 -0.4893,-0.145 -0.7104,-0.2154 -6.3789,-2.0315 -10.9767,-3.8887 -14.2544,-5.4477 3.2799,1.5662 7.8741,3.4233 14.2544,5.4477 0.2219,0.07 0.4842,0.1446 0.7104,0.2154 z m 512.71587,-7.5645 c 0.01,-0.01 0.023,-0.012 0.032,-0.018 -1.9473,-1.1338 -4.8391,-2.5551 -8.8608,-4.1513 4.0414,1.6028 6.8826,3.0227 8.8286,4.1689 z m -531.65627,-0.2036 c 21.9891,-13.8892 120.4713,-31.544 265.9674,-31.544 44.08677,0 86.62177,1.6513 124.69467,4.7139 -38.0664,-3.0651 -80.5913,-4.7241 -124.66687,-4.7241 -145.542,0 -244.0089,17.6698 -266.0039,31.5498 0,0 0.01,0 0.01,0 z m 521.95607,-4.3066 c -5.4591,-2.1119 -12.9216,-4.5177 -23.2763,-7.0474 -14.5323,-3.5578 -31.8575,-6.7122 -51.3472,-9.4087 19.4901,2.6988 36.8157,5.8588 51.3472,9.4277 10.3147,2.5172 17.8236,4.9212 23.2763,7.0284 z m -56.3174,-42.7574 c -23.72,-132.4199 -75.6599,-196.79 -120.6299,-228.06 0,0 -0.01,0 -0.015,-0.01 44.9681,31.3012 96.9244,95.6505 120.6138,228.0615 0.01,0 0.021,0 0.031,0 z m -120.8041,-228.1342 c -1.8705,-0.7702 -3.5695,-1.9123 -4.9658,-3.3765 0,0 0,0 0,0 1.3905,1.4763 3.1032,2.6369 4.9702,3.3795 z m -12.1348,-7.8003 c -20.0409,-11.75295 -37.8904,-17.13965 -50.0756,-19.60695 12.1919,2.4766 30.0425,7.8699 50.0756,19.60695 z m 20.4097,-20.74515 c 8.5481,-1.8614 26.5267,-6.0521 50.4683,-13.0972 -23.9547,7.0458 -41.949,11.2317 -50.499,13.0767 -1.4004,-0.8829 -2.7929,-1.7382 -4.1793,-2.5693 1.3963,0.8371 2.7997,1.7002 4.21,2.5898 z m -169.09117,-3.079 c 42.9701,-25.4655 78.7137,-26.5734 82.185,-26.6119 2.78357,0.033 28.62297,0.8175 62.42127,16.3813 2.5999,1.1973 5.2464,2.4829 7.9337,3.8614 -2.6873,-1.3787 -5.3339,-2.6638 -7.9337,-3.8614 -33.8127,-15.5753 -59.6513,-16.3678 -62.45207,-16.4004 -3.4776,0.039 -39.2086,1.1538 -82.1542,26.631 z m -21.7486,-0.8175 c -14.4392,-3.5916 -35.1292,-9.2058 -59.6279,-17.2134 24.4958,8.0139 45.1863,13.6277 59.6279,17.2134 z m 182.46387,-1.1279 c -1.1976,-0.6821 -2.3855,-1.3384 -3.5699,-1.9834 1.1847,0.645 2.3721,1.3012 3.5699,1.9834 z m 123.9155,-29.9487 c 0.01,0 0.014,0 0.02,-0.01 l 0.01,-203.35991 c -14.9122,-9.17767 -29.7821,-17.3514 -44.6178,-24.52147 14.8266,7.16752 29.6853,15.33802 44.587,24.5112 z M 766.24173,935.87375 V 736.06317 c 0,-4.92 2.5155,-9.50063 6.6665,-12.14063 16.3016,-10.35817 32.627,-19.58385 48.9727,-27.67672 -16.3549,8.09392 -32.6909,17.31892 -49.0064,27.67672 -4.149,2.63003 -6.6548,7.23015 -6.6548,12.12015 v 199.81056 c -8.2473,-3.4725 -16.6377,-7.1751 -25.1089,-11.0918 8.4776,3.9235 16.8743,7.6328 25.1265,11.1123 z m 462.82907,0 c 36.1,-15.22 74.8804,-34.6103 111.7105,-58.8604 V 466.12323 c 0,6.8e-4 -0.01,8.3e-4 -0.01,0.001 v 410.86812 c -36.8335,24.2757 -75.5957,43.6528 -111.7002,58.8516 z M 625.77783,856.7429 V 462.39378 c -0.01,-4.5e-4 -0.011,-10e-4 -0.016,-10e-4 V 856.7317 c 0.01,0.004 0.011,0.008 0.016,0.0117 z m 746.99567,-2.499 c 33.8222,-26.06318 64.6027,-56.76166 88.2085,-92.76128 45.48,-69.33998 58.4691,-149.58023 38.6191,-238.51028 -0.2277,-0.51998 -0.558,-1.24013 -0.9991,-2.13135 0.4377,0.88672 0.7632,1.60447 0.9888,2.12257 19.84,88.92 6.8611,169.17001 -38.6088,238.50001 -23.6326,36.01567 -54.3826,66.69255 -88.2085,92.78033 z M 964.46143,654.42746 c 4.0108,-0.37252 8.0225,-0.69285 12.0338,-0.93022 -4.0115,0.23737 -8.023,0.5577 -12.0338,0.93022 z M 663.08893,467.44308 c 0.3258,-0.001 0.6507,-0.0134 0.9741,-0.0366 -1.2753,0.089 -2.5733,0.009 -3.8613,-0.25342 -1.933,-0.39 -3.7824,-0.6798 -5.6734,-1.02983 v 0.003 c 1.8829,0.32902 3.7259,0.65805 5.6499,1.0269 0.9703,0.19875 1.9449,0.29325 2.9107,0.29002 z m 672.01167,-0.29002 c 1.7944,-0.34403 3.5194,-0.651 5.272,-0.95805 -1.7484,0.3174 -3.4725,0.59625 -5.272,0.95805 z m -7.5425,-0.51855 c -2.39,-0.8313 -4.5666,-2.2863 -6.2666,-4.26128 -0.3291,-0.384 -14.8794,-16.7475 -49.7871,-35.6631 -2.5776,-1.39672 -5.2647,-2.8083 -8.0669,-4.22752 2.8016,1.41945 5.4898,2.8305 8.0669,4.22752 34.8893,18.91335 49.4273,35.27678 49.7564,35.67338 1.7101,1.97587 3.8964,3.42472 6.2973,4.251 z"
       id="path40"
       inkscape:connector-curvature="0"
       transform="matrix(0.34226103,0,0.59281347,0.34226103,163.73301,913.16175)"
       inkscape:export-xdpi="27.690001"
       inkscape:export-ydpi="27.690001" /></g></svg>